# xmcd CD database file
#
# Track frame offsets:
#	150
#	28753
#	71820
#	94206
#	121785
#	153485
#	185562
#	219494
#
# Disc length: 3155 seconds
#
# Revision: 0
# Processed by: cddbd v1.5.1PL2 Copyright (c) Steve Scherf et al.
# Submitted via: CDex 1.51
#
DISCID=6f0c5108
DTITLE=Albert Sanz and David Mengual - des d'aquí
DYEAR=2000
DGENRE=Jazz
TTITLE0=Benet On
TTITLE1=Intringulis
TTITLE2=Aixina
TTITLE3=Mr Johnson
TTITLE4=Teniulomok
TTITLE5=Anna
TTITLE6=Algo Contigo
TTITLE7=Ses Voltes
EXTD=YEAR: 2000
EXTT0=
EXTT1=
EXTT2=
EXTT3=
EXTT4=
EXTT5=
EXTT6=
EXTT7=
PLAYORDER=
